<?xml version="1.0" standalone="no"?>
<!DOCTYPE svg PUBLIC "-//W3C//DTD SVG 1.0//EN" "http://www.w3.org/TR/2001/REC-SVG-20010904/DTD/svg10.dtd">
<svg xmlns="http://www.w3.org/2000/svg" xmlns:xlink="http://www.w3.org/1999/xlink" id="body_1" width="87" height="126">

<g transform="matrix(0.27997798 0 0 0.27997798 -0 0.066461444)">
	<g transform="matrix(1 0 0 1 -99.76125 -41.560326)">
        <path d="M405.34 252.259C 405.34 337.066 338.126 405.816 255.213 405.816C 172.301 405.816 105.08699 337.066 105.08699 252.259C 105.08699 167.45001 172.301 98.698 255.213 98.698C 338.126 98.698 405.34 167.45 405.34 252.259" stroke="#FFFFFF" stroke-width="1" fill="#BB9E2E" fill-rule="nonzero" stroke-opacity="0" />
        <path d="M111.204 290.29C 111.204 290.29 100.336 130.15501 247.89099 125.57901L247.89099 125.57901L237.59698 108.421005L157.52899 135.302L134.652 161.60901L114.635994 199.92902L103.19699 244.53802L106.62799 274.27704" stroke="#FFFFFF" stroke-width="1" fill="#FFE755" fill-rule="nonzero" stroke-opacity="0" />
        <path d="M152.389 147.504C 126.04901 174.455 109.74901 211.666 109.74901 252.832C 109.74901 293.989 126.04901 331.20502 152.389 358.151C 178.742 385.097 215.06001 401.724 255.211 401.724C 295.363 401.724 331.68298 385.097 358.034 358.151C 384.372 331.20502 400.675 293.989 400.675 252.832C 400.675 211.666 384.37198 174.455 358.034 147.504C 331.68298 120.563995 295.363 103.937 255.211 103.933C 215.06 103.937 178.742 120.563995 152.389 147.504zM145.72101 364.669C 117.728 336.041 100.422 296.475 100.422 252.832C 100.422 209.182 117.728 169.62 145.721 140.98999C 173.708 112.35399 212.44899 94.604996 255.211 94.609985C 297.972 94.60499 336.71698 112.35399 364.699 140.98999C 392.695 169.62 410.003 209.185 410 252.832C 410.003 296.475 392.695 336.04102 364.699 364.669C 336.717 393.303 297.97202 411.051 255.211 411.051C 212.449 411.051 173.70801 393.303 145.72101 364.669" stroke="#FFFFFF" stroke-width="1" fill="#231F20" fill-rule="nonzero" stroke-opacity="0" />
        <path d="M108.901 191.073L103.353004 204.207L115.401 215.323L129.901 201.073L134.151 190.323L117.901 188.073" stroke="#FFFFFF" stroke-width="1" fill="#959595" fill-rule="nonzero" stroke-opacity="0" />
        <path d="M136.276 191.573L129.776 204.073L116.034004 217.093L135.25 236.399L159.91501 253.825L172.513 241.562L175.776 230.073" stroke="#FFFFFF" stroke-width="1" fill="#404040" fill-rule="nonzero" stroke-opacity="0" />
        <path d="M145.776 245.073L132.776 260.573L135.276 269.073L148.776 272.573L169.276 260.573L195.452 237.472L181.955 210.121L172.778 220.521L178.421 231.16L165.257 249.934L155.209 250.61801" stroke="#FFFFFF" stroke-width="1" fill="#959595" fill-rule="nonzero" stroke-opacity="0" />
        <path d="M132.395 209.876L145.266 206.61101L141.276 218.45401L128.405 221.71901L132.395 209.876z" stroke="none" fill="#959595" fill-rule="nonzero" />
        <path d="M127.46 223.033L130.84799 208.205L146.06 204.085L142.824 220.125L127.46 223.033zM133.943 211.547L131.47299 218.87799L140.41899 218.346L142.19899 209.45299z" stroke="none" fill="#231F20" fill-rule="nonzero" />
        <path d="M144.277 221.063L157.14899 217.798L153.15799 229.64L140.28699 232.905L144.277 221.063z" stroke="none" fill="#959595" fill-rule="nonzero" />
        <path d="M139.881 235.314L142.73 219.392L157.554 215.23799L155.742 230.25499L139.881 235.314zM145.825 222.733L143.355 230.064L152.54399 227.318L154.006 220.196z" stroke="none" fill="#231F20" fill-rule="nonzero" />
        <path d="M156.327 231.093L169.198 227.828L165.208 239.671L152.33699 242.936L156.327 231.093z" stroke="none" fill="#959595" fill-rule="nonzero" />
        <path d="M151.392 244.25L156.61299 229.932L169.99199 225.302L165.978 241.19301L151.392 244.25zM157.875 232.764L155.405 240.09401L163.818 237.32701L166.131 230.67001z" stroke="none" fill="#231F20" fill-rule="nonzero" />
		<g>
            <path d="M150.229 275.79L135.682 272.72302C 127.739006 263.153 127.89901 262.39703 128.21901 261.71802L128.21901 261.71802L141.352 245.18002L135.151 240.08603L135.077 240.02403L113.577995 221.52502L113.534996 221.48703C 113.534996 221.48703 107.20599 216.54002 100.535995 209.98804C 98.383995 199.55403 101.21999 196.49104 102.923 191.92903C 109.154 185.64104 117.284996 184.31802 117.284996 184.31802C 118.13 183.91502 119.079994 183.98703 119.98599 184.05402L119.98599 184.05402L134.984 187.05402C 136.45 187.58101 135.75099 187.24602 137.07999 188.05801L137.07999 188.05801L158.57898 206.557L158.66698 206.63501L169.92798 216.682L179.92798 207.837C 179.92798 207.837 181.36098 213.947 181.36098 213.947L181.36098 213.947L175.28897 221.06801L182.02898 230.899L179.70598 239.264C 171.33199 247.13101 168.11998 251.41602 161.49397 255.121C 153.26297 256.093 149.83498 252.106 144.93698 248.125L144.93698 248.125L133.26698 262.821L137.95198 269.069L149.83598 271.615L154.50299 268.948L140.22299 265.13998C 139.719 262.63098 141.25099 262.81198 142.575 262.934L142.575 262.934L157.576 266.934L157.838 267.042L182.91899 252.711C 187.75899 254.588 187.25499 255.023 186.78099 255.41899L186.78099 255.41899L150.229 275.79zM153.755 246.37901L159.875 247.99C 159.875 247.99 168.618 241.87001 172.166 236.546C 174.836 232.77301 173.968 230.06 173.968 230.06C 161.642 218.689 149.199 207.452 136.535 196.459L136.535 196.459L136.49501 196.426L131.869 205.302C 131.556 205.767 131.728 205.546 131.353 205.964L131.353 205.964L119.125 217.095C 133.389 229.401 126.249 223.257 140.544 235.52701zM115.076 213.52C 118.54099 209.88 122.703995 207.421 126.28 203.434C 129.943 198.936 130.073 196.49701 131.812 192.957C 129.096 191.855 127.63 189.987 120.116 190.817C 110.744995 190.391 108.78999 195.404 108.78999 195.404C 108.78999 195.404 104.09599 198.828 107.634995 206.934" stroke="none" fill="#231F20" fill-rule="nonzero" />
            <path d="" stroke="none" fill="none" />
		</g>
        <path d="M386.358 319.944C 392.106 325.346 392.106 334.106 386.358 339.509C 380.61002 344.912 371.29102 344.912 365.544 339.509C 359.79602 334.10602 359.79602 325.346 365.544 319.944C 371.29102 314.54102 380.61002 314.54102 386.358 319.944" stroke="none" fill="#404040" fill-rule="nonzero" />
        <path d="M374.781 340.454L378.474 339.144C 385.083 338.13202 387.58 335.42203 387.58 328.642C 386.542 322.699 383.80698 319.266 378.095 318.231L378.095 318.231L372.932 318.05C 366.323 319.063 364.62302 324.486 364.62302 331.266C 365.32303 336.188 368.13602 338.374 372.54703 340.04898L372.54703 340.04898L374.781 340.454zM374.22702 346.428C 363.803 344.613 358.77203 337.206 358.77203 326.41602C 360.72702 315.94202 366.04504 312.73102 376.43903 312.73102C 386.86304 314.54703 393.60202 322.385 393.60202 333.17502C 392.03702 342.27902 386.38803 344.821 377.60202 346.428z" stroke="none" fill="#231F20" fill-rule="nonzero" />
        <path d="M379.202 325.393C 380.992 327.059 380.666 330.454 378.87698 332.12C 377.08698 333.78598 374.511 333.09198 372.72098 331.426C 370.93198 329.76 371.74997 326.699 373.53998 325.033C 375.32898 323.367 377.412 323.727 379.20197 325.39297" stroke="none" fill="#231F20" fill-rule="nonzero" />
        <path d="M234.808 260.633C 216.915 260.478 203.682 250.569 194.854 235.661C 201.033 231.903 200.125 224.47499 200.248 218.209C 200.321 214.436 201.485 210.81 201.579 207.02899C 201.73799 200.702 199.17299 194.247 198.004 188.07799L198.004 188.07799L198.004 187.89398L192.976 187.89499C 193.392 170.094 203.912 154.754 206.691 137.40498C 209.015 137.52998 211.379 137.17998 213.558 136.35799C 217.205 134.98299 220.634 133.15099 224.4 132.09099C 234.747 129.18 251.612 130.46098 263.583 128.33499C 279.719 125.46999 295.488 120.79999 311.907 119.64099C 326.656 118.59999 342.30902 126.73599 355.587 117.106995C 362.21402 151.256 360.445 188.754 343.331 219.78299C 336.572 232.03699 324.905 248.62599 324.905 248.62599C 324.905 248.62599 333.409 252.12099 321.78 258.029C 314.594 265.20398 286.418 267.182 279.927 266.132C 274.326 265.67798 245.437 267.15198 237.775 260.621C 230.112 254.09 234.808 260.633 234.808 260.633z" stroke="#FFFFFF" stroke-width="1" fill="#F0D6B7" fill-rule="nonzero" stroke-opacity="0" />
        <path d="M220.609 421.253L163.418 401.806C 160.646 398.806 159.601 394.961 158.923 391.044C 155.517 371.358 157.578 350.816 153.866 330.866C 150.736 314.044 143.47 298.279 137.68199 282.277C 151.581 274.526 162.47499 262.58902 176.105 254.42001C 182.836 250.38701 190.43599 247.876 197.733 245.10301C 235.358 274.74902 235.158 263.082 238.477 265.122C 241.795 267.163 254.261 290.18802 261.967 302.62802L261.967 302.62802L279.681 319.07703C 297.324 338.47104 303.903 339.64 308.51 341.52704L308.51 341.52704L298.962 352.05005L217.177 355.48105L217.177 369.20706L224.04001 417.24805L220.609 421.253z" stroke="#FFFFFF" stroke-width="1" fill="#27416B" fill-rule="nonzero" stroke-opacity="0" />
        <path d="M225.472 258.654C 219.587 257.992 213.804 256.669 208.028 255.39699L208.028 255.39699L195.229 235.40099C 198.67601 233.10399 200.768 229.32999 200.56201 225.14598C 200.49701 223.81499 199.76001 222.61697 199.82602 221.26997C 199.85101 220.75497 200.34003 215.56198 200.41902 215.13298C 200.57903 214.25198 201.10602 213.47697 201.37802 212.62498L201.37802 212.62498L201.41103 212.81798C 204.79303 230.68898 212.95802 245.91898 226.32803 258.25897L226.32803 258.25897L226.47304 258.40698L226.39404 258.598L225.472 258.654z" stroke="#FFFFFF" stroke-width="1" fill="#F7E4CD" fill-rule="nonzero" stroke-opacity="0" />
        <path d="M293.246 190.772C 293.33002 189.455 293.505 188.108 293.697 186.792C 294.225 183.171 294.718 178.79501 296.96 175.751C 298.629 173.48401 301.63098 175.52701 302.776 177.25401C 303.467 178.29701 303.86002 179.529 303.91602 180.77101C 301.308 182.53902 298.66803 184.31201 296.328 186.436C 295.26102 187.405 293.428 188.886 293.262 190.578L293.262 190.578L293.246 190.772z" stroke="#FFFFFF" stroke-width="1" fill="#F7E4CD" fill-rule="nonzero" stroke-opacity="0" />
        <path d="M210.314 260.544L156.556 284.565C 156.556 284.565 178.86 373.212 167.421 400.664L167.421 400.664L159.414 397.805L158.842 364.061L143.974 300.008L137.682 282.27798L193.729 244.53299L210.314 260.54398" stroke="#FFFFFF" stroke-width="1" fill="#4B69A8" fill-rule="nonzero" stroke-opacity="0" />
        <path d="M215.842 309.575L223.469 318.881L223.469 353.196L214.318 353.196C 214.318 353.196 213.17499 329.17603 213.17499 326.315C 213.17499 323.45502 214.318 313.161 214.318 313.161" stroke="#FFFFFF" stroke-width="1" fill="#4B69A8" fill-rule="nonzero" stroke-opacity="0" />
        <path d="M216.033 358.343L190.297 359.486L197.733 364.633L216.033 367.49298" stroke="#FFFFFF" stroke-width="1" fill="#4B69A8" fill-rule="nonzero" stroke-opacity="0" />
        <path d="M304.11 352.623L325.27 352.051L330.417 404.668L308.684 407.527L304.11 352.62302" stroke="#FFFFFF" stroke-width="1" fill="#27416B" fill-rule="nonzero" stroke-opacity="0" />
        <path d="M281.982 351.171C 282.429 349.331 318.111 314.98898 318.811 313.22998C 328.25702 289.499 327.6 286.93097 328.25702 283.21997L328.25702 283.21997L325.001 243.28897L335.564 236.52597C 346.628 246.22397 367.46298 253.32397 366.448 267.97998C 365.501 281.637 361.373 288.438 358.469 301.15598C 357.612 304.90997 354.453 316.15897 353.233 319.82297C 349.441 331.21097 346.348 339.78198 341.856 350.90698L341.856 350.90698L281.982 351.171z" stroke="#FFFFFF" stroke-width="1" fill="#27416B" fill-rule="nonzero" stroke-opacity="0" />
        <path d="M324.125 348.62L304.11 352.623L306.968 368.638C 314.40198 372.069 326.986 362.917 326.986 362.917" stroke="#FFFFFF" stroke-width="1" fill="#4B69A8" fill-rule="nonzero" stroke-opacity="0" />
        <path d="M364.732 278.275L324.698 248.536L335.564 236.526L365.876 264.549L364.732 278.275z" stroke="#FFFFFF" stroke-width="1" fill="#4B6AA8" fill-rule="nonzero" stroke-opacity="0" />
        <path d="M235.881 465.296L224.04 417.248L218.151 381.796L217.177 355.481L270.768 352.628L304.11002 352.623L301.078 412.679L306.225 459.004L305.654 467.583L262.19 471.014L235.881 465.29602" stroke="#FFFFFF" stroke-width="1" fill="#FFFFFF" fill-rule="nonzero" stroke-opacity="0" />
        <path d="M296.674 352.051C 296.674 352.051 293.815 411.531 302.394 453.852C 302.394 453.852 285.23602 464.719 260.071 467.578L260.071 467.578L308.112 465.862L313.831 462.43L306.968 368.638L305.25198 348.618" stroke="#FFFFFF" stroke-width="1" fill="#DCD9D8" fill-rule="nonzero" stroke-opacity="0" />
        <path d="M331.392 400.097L353.69598 393.806L396.01697 391.519L402.30795 372.074L390.86996 338.331L377.71698 336.615L359.41498 342.33398L341.856 350.90698L332.534 349.197L325.27 352.051" stroke="#FFFFFF" stroke-width="1" fill="#FFFFFF" fill-rule="nonzero" stroke-opacity="0" />
        <path d="M330.988 388.653C 330.988 388.653 345.857 381.79202 348.146 382.364L348.146 382.364L341.856 350.907L349.28998 348.049C 349.28998 348.049 354.43698 377.78702 354.43698 381.219C 354.43698 381.219 386.46298 382.935 389.32397 382.935C 389.32397 382.935 396.18698 369.78 394.47098 356.054L394.47098 356.054L400.76196 374.356L401.33395 384.65L392.18396 398.376L381.88895 400.664L364.73193 400.092L359.01294 392.65802L338.99594 395.51602L332.70395 397.80502" stroke="#FFFFFF" stroke-width="1" fill="#DCD9D8" fill-rule="nonzero" stroke-opacity="0" />
        <path d="M343.988 222.155C 331.926 217.979 323.44202 216.888 313.816 217.26C 311.46002 213.756 313.31702 211.502 313.712 206.905C 319.221 203.169 330.724 208.009 340.2 212.471C 341.85202 214.071 344.13202 217.09 345.703 218.76999L345.703 218.76999L343.988 222.155z" stroke="#FFFFFF" stroke-width="1" fill="#231F20" fill-rule="nonzero" stroke-opacity="0" />
        <path d="M266.626 215.516C 287.349 207.73001 295.183 208.029 309.74902 206.673C 311.81104 209.953 310.446 213.752 308.87802 217.354C 304.27902 219.37401 285.41803 218.18901 269.338 224.606C 262.67902 227.405 259.695 228.641 253.585 228.123C 251.14401 223.207 254.983 221.741 266.626 215.516z" stroke="#FFFFFF" stroke-width="1" fill="#231F20" fill-rule="nonzero" stroke-opacity="0" />
        <path d="M378.976 351.434C 370.12402 353.206 363.905 361.809 355.27002 361.257C 360.015 354.56598 368.33203 351.746 378.976 351.434" stroke="#FFFFFF" stroke-width="1" fill="#231F20" fill-rule="nonzero" stroke-opacity="0" />
        <path d="M382.881 365.287C 375.66602 366.04898 367.19202 367.21698 359.875 366.615C 363.339 361.324 376.685 363.149 382.881 365.287" stroke="#FFFFFF" stroke-width="1" fill="#231F20" fill-rule="nonzero" stroke-opacity="0" />
        <path d="M385.381 377.23C 377.272 377.405 367.194 377.24402 359.487 376.59702C 364.046 371.70102 380.122 374.78003 385.381 377.23" stroke="#FFFFFF" stroke-width="1" fill="#231F20" fill-rule="nonzero" stroke-opacity="0" />
        <path d="M321.176 409.913C 322.339 420.096 326.376 430.414 325.87 441.567C 321.387 443.07898 318.81198 444.401 312.805 444.39297C 312.38098 434.91498 311.113 420.42596 311.492 411.38998C 314.447 411.586 318.803 409.28 321.176 409.913" stroke="#FFFFFF" stroke-width="1" fill="#DCD9D8" fill-rule="nonzero" stroke-opacity="0" />
        <path d="M277.078 263.213L276.881 263.06802C 277.263 262.696 277.04602 262.84702 277.53403 262.618L277.53403 262.618L277.64902 262.35602L278.72702 262.69202L277.36102 262.996L277.078 263.213z" stroke="#FFFFFF" stroke-width="1" fill="#F0D6B7" fill-rule="nonzero" stroke-opacity="0" />
        <path d="M256.225 169.723C 238.45401 168.27701 239.77101 166.72 229.875 164.509C 219.979 162.298 208.394 156.431 199.249 152.896C 200.62099 148.853 202.665 152.849 204.45999 146.892C 214.441 145.179 224.41199 143.402 234.398 141.719C 239.177 140.92499 243.94899 140.09299 248.733 139.33699C 265.405 136.704 269.558 136.00299 284.747 134.28099C 307.644 131.68399 330.737 131.13899 353.725 129.95C 354.319 132.526 355.02402 135.078 354.975 137.749C 354.728 151.26999 339.746 156.577 329.127 157.851L329.127 157.851L318.225 157.505C 314.112 150.116 311.75 146.25601 306.225 140.348C 288.20502 158.24101 287.246 159.70901 277.475 165.304C 267.764 168.919 256.225 169.723 256.225 169.723z" stroke="#FFFFFF" stroke-width="1" fill="#A1917C" fill-rule="nonzero" stroke-opacity="0" />
        <path d="M298.637 199.587L295.268 199.35701C 290.849 195.195 290.325 188.32701 293.664 183.37502C 295.386 186.26701 294.557 190.70901 297.462 192.945C 299.681 194.654 303.42902 194.34201 305.905 194.037C 314.52798 192.976 322.002 187.987 329.895 184.77701C 330.974 182.921 331.862 180.88 331.72998 178.679C 331.48297 174.533 324.64798 168.334 322.003 165.068C 313.664 154.777 305.985 144.28099 305.70898 130.527C 306.61798 129.978 306.08698 130.20299 307.34198 129.95699C 308.13098 130.34099 308.288 130.26698 308.714 131.13899C 309.349 132.443 309.438 133.43199 309.77698 134.85799C 310.28897 137.01599 312.12698 140.00699 313.12198 141.64499C 318.58597 150.63098 325.30798 158.721 332.29797 166.54399C 333.69397 168.107 339.28998 172.7 339.56897 174.045C 340.47598 178.423 336.97696 181.969 337.24597 186.174C 326.78598 193.416 317.511 197.55699 304.98798 199.429L304.98798 199.429L298.637 199.587z" stroke="#FFFFFF" stroke-width="1" fill="#231F20" fill-rule="nonzero" stroke-opacity="0" />
        <path d="M236.491 263.94C 236.491 263.94 270.587 268.281 288.241 266.152C 306.88 267.509 321.658 262.15402 329.172 254.449C 330.464 249.84201 331.5 284.94 327.376 296.574C 319.648 318.376 300.98 338.299 300.98 338.299C 300.98 338.299 261.402 306.78802 252.62001 285.94C 246.675 271.829 236.49101 263.94 236.49101 263.94L236.49101 263.94L236.491 263.94z" stroke="#FFFFFF" stroke-width="1" fill="#DBD9D8" fill-rule="nonzero" stroke-opacity="0" />
        <path d="M270.557 464.818C 283.97302 465.92398 297.242 463.146 310.329 460.58398C 308.785 450.722 308.604 450.55197 307.739 438.146C 306.86502 425.61398 306.95 413.037 306.26 400.497C 305.45502 385.851 304.138 371.242 302.87302 356.631C 294.393 354.77402 285.67902 354.549 277.039 354.18402L277.039 354.18402L269.602 354.18402C 252.249 354.566 235.083 357.39902 217.95999 360.006C 220.43799 393.81403 229.44899 426.661 238.181 459.27402C 245.624 461.687 253.399 462.794 261.105 464.00803L261.105 464.00803L270.557 464.818zM312.805 444.393L314.507 444.393C 318.43298 444.14 322.16898 442.801 325.87 441.56702C 325.675 430.85803 323.32498 420.35803 321.176 409.91302L321.176 409.91302L320.19998 409.80304C 314.39697 410.87103 317.29898 410.34204 311.49197 411.39005C 311.29398 421.14804 311.99298 430.89304 312.61096 440.62405zM309.85098 391.875L310.68097 403.582C 321.12997 401.818 315.90997 402.727 326.33997 400.856C 325.66098 385.62698 323.28296 370.546 321.06097 355.485L321.06097 355.485L317.94998 355.485C 314.852 355.57397 311.813 356.244 308.787 356.85898L308.787 356.85898L308.826 368.555zM335.34 389.517L335.837 394.563C 339.341 394.395 342.657 393.14297 345.93402 391.996C 346.78302 379.056 343.006 366.551 339.25003 354.339L339.25003 354.339L337.04102 354.06C 334.812 354.137 332.58603 354.254 330.359 354.366C 331.419 362.706 332.70102 371.014 333.961 379.325zM371.179 397.742C 382.03497 398.134 394.22897 393.069 397.538 381.83002C 399.15698 376.334 397.708 370.59402 396.276 365.22702C 393.152 353.51703 389.46 345.64603 378.67 339.51102C 377.971 339.669 377.336 339.78403 376.66602 340.05002C 373.84702 341.173 371.209 342.695 368.47302 343.99802C 361.27402 347.427 353.92902 350.59702 346.669 353.88803C 349.88202 365.91803 350.798 378.38602 351.907 390.74103C 362.493 389.45703 373.15402 390.63504 383.713 391.60303C 377.256 392.77203 370.95102 394.62802 364.64603 396.41904C 366.01303 397.07605 367.53503 397.26904 369.01804 397.49405zM297.698 331.288L298.66998 332.284L302.04498 328.912L297.176 327.374C 295.366 328.402 296.1 328.03598 295.01498 328.555L295.01498 328.555L295.469 329.014zM304.263 324.404L305.7 324.76898C 308.877 321.00497 307.34702 322.934 310.28802 318.982L310.28802 318.982L302.67 323.858zM280.691 474.051L275.42 474.026C 270.648 474.052 273.03403 474.046 268.26202 474.046C 256.54404 474.133 245.09402 471.29398 233.74002 468.727C 228.03603 454.18698 223.85703 439.116 219.54903 424.121L219.54903 424.121L216.04202 424.361C 199.74802 424.016 185.45203 415.542 170.88303 409.28C 166.18503 407.261 159.59802 406.93 157.10803 401.711C 153.39603 393.928 155.67903 385.101 155.16203 376.859C 154.18204 361.232 152.82503 345.479 148.76804 330.303C 146.41803 321.514 143.29704 312.971 139.83804 304.565C 136.35104 296.088 128.45705 286.202 133.56905 276.77C 136.41005 271.52698 143.04205 270.009 147.87605 267.327C 159.37206 260.948 184.72006 248.284 191.06606 236.88899C 193.31006 236.70699 195.10205 235.27899 196.84006 233.98499C 203.83105 248.85999 222.61206 259.068 238.85706 258.89398C 239.43005 259.818 239.06305 259.223 239.95506 260.68097L239.95506 260.68097L241.13907 260.89597C 246.50807 261.96097 251.65907 263.68295 257.09106 264.64896C 266.18906 266.26495 275.74905 265.87296 284.94006 265.82297C 293.92007 265.77396 302.56406 265.78098 311.27405 263.42096C 315.99405 262.05096 319.88504 258.92096 324.12305 256.56296C 323.65405 252.88496 323.84705 254.30795 323.56906 252.28996C 312.18906 258.05795 300.67307 262.91296 287.80106 263.18997C 256.18005 262.15497 236.74706 241.11197 224.37305 213.64297C 239.69905 236.02597 265.05905 257.63797 294.10904 254.08798C 316.14905 251.39499 332.69205 234.41399 342.96005 215.89198C 358.98505 186.98598 356.07904 151.05798 351.68405 119.653984C 354.38007 118.67499 356.08704 116.306984 357.77005 114.11999C 360.67804 129.30798 362.13004 144.67398 361.70804 160.13498C 361.26202 176.47198 357.14703 192.92198 351.93005 208.30098C 349.18005 216.40797 340.40204 226.13197 340.83707 232.52599C 341.39807 240.77098 365.11407 252.844 370.02307 261.089C 376.22708 271.509 368.00308 283.345 364.48907 293.17798C 360.87308 303.29498 357.59708 313.52597 354.29807 323.74997C 355.52206 320.26398 356.70605 316.76398 357.89505 313.26596L357.89505 313.26596L356.69904 316.79495L356.62704 317.00494C 351.38004 332.48694 354.17206 324.24594 348.25003 341.72995C 353.65802 339.28296 359.00504 336.69595 364.52002 334.49396C 371.73303 331.61295 379.781 329.58197 387.234 332.65295C 405.845 340.32095 414.281 386.83896 397.363 399.20395C 391.302 403.63394 383.859 403.59296 376.638 403.71796C 371.727 403.77194 366.87 402.92395 362.036 402.15796C 360.47 400.81195 359.405 399.01395 358.32 397.28397C 356.562 397.22998 354.803 397.22098 353.045 397.20596C 347.51602 397.28595 342.26 399.18295 337.074 400.90598C 336.939 404.92996 333.25702 407.05597 330.105 408.78098C 334.31702 425.718 333.954 443.65198 317.295 452.70898C 316.57703 456.31198 318.437 459.83298 318.20502 463.41998C 317.522 473.994 303.54602 473.977 295.68402 474.04398C 290.95203 474.02896 293.31802 474.041 288.58704 474.00897L288.58704 474.00897L286.90805 474.02298zM196.655 169.40799L196.672 169.357L196.717 169.398zM294.655 321.15298L296.168 321.73798C 301.89 318.07297 299.066 319.96097 304.64 316.076C 301.34402 315.473 298.26202 314.21298 295.334 312.625C 290.76703 315.611 293.01602 314.067 288.588 317.258C 290.93802 318.953 289.75302 318.12 292.144 319.758zM283.123 313.26797L283.60898 313.62097C 285.852 312.37598 287.972 310.93997 290.106 309.52097L290.106 309.52097L280.69 303.93097L273.94 306.80298C 277.765 309.455 275.856 308.124 279.66602 310.79697zM306.292 311.64697L309.457 312.52097C 313.437 309.36996 311.47 310.97397 315.358 307.70798L315.358 307.70798L307.585 304.473C 307.387 304.664 307.02 305.034 306.787 305.186C 304.603 306.614 302.345 307.92 300.172 309.372L300.172 309.372L301.865 310.11102zM288.599 303.32297L294.51498 306.54495C 299.145 303.34396 296.85498 304.97894 301.387 301.63895L301.387 301.63895L293.198 296.77795L285.734 301.55496zM311.658 300.83597L318.94998 303.73898C 319.79398 301.89697 320.568 300.03598 321.24197 298.12598L321.24197 298.12598L316.554 296.464zM267.723 302.59396L268.539 303.24197C 270.711 302.23196 273.012 301.56598 275.238 300.69397L275.238 300.69397L272.247 298.91797C 272.22702 298.90698 272.207 298.89697 272.186 298.88596C 272.09 298.81595 271.993 298.74695 271.896 298.67694L271.896 298.67694L268.96298 296.36194L264.215 298.38193C 266.021 300.73593 265.073 299.55893 267.064 301.90793zM305.62598 298.10297L305.82297 298.19595C 309.56497 295.16196 307.71396 296.70294 311.37497 293.57297L311.37497 293.57297L304.25296 289.34396L301.72797 291.30496L301.52896 291.44595L297.75797 293.85895C 302.37497 296.41495 300.05496 295.15894 304.71896 297.62695zM274.64996 293.94196L280.40598 298.15594C 285.554 295.27994 283.00198 296.75494 288.063 293.72894L288.063 293.72894L282.03998 290.15295L279.235 291.94797C 278.95697 292.10596 279.098 292.03198 278.81 292.17096zM258.64697 290.46097L261.03397 293.94595C 262.07697 293.37494 263.24597 293.11194 264.36496 292.73096L264.36496 292.73096L259.35495 288.77597L257.93994 289.37897zM321.12897 292.90698L322.85397 293.469L323.84396 289.953L320.73297 292.73102zM216.9 414.621L220.631 415.275C 217.77899 397.125 215.864 378.847 213.86499 360.589C 211.49199 359.671 208.91699 359.608 206.40799 359.481C 202.97699 359.697 199.54298 359.843 196.109 360.00098L196.109 360.00098L193.903 359.81497C 195.625 355.972 199.486 354.32898 203.104 352.73398C 201.71901 349.757 200.92801 346.55597 200.09201 343.39398C 207.57301 347.645 203.83002 345.525 211.322 349.75397C 213.653 336.49896 212.615 322.98596 214.28 309.65698C 215.214 309.525 214.746 309.581 215.685 309.49C 221.48 317.974 215.34799 327.54498 215.522 336.63C 215.62201 341.827 216.77501 346.81302 217.907 351.86002C 239.402 348.58002 261.145 347.50403 282.835 346.37302L282.835 346.37302L282.87198 346.345C 290.42197 340.159 286.77997 343.316 293.80997 336.887C 285.65295 330.409 277.27997 321.024 271.57297 315.01898C 265.86697 309.01398 258.71396 302.65097 251.37396 292.30197C 242.41595 277.18997 240.80597 273.36597 238.68497 269.82596C 223.67697 264.11395 207.15497 261.87695 194.96198 250.61795L194.96198 250.61795L194.80098 250.63095C 175.46198 258.40894 158.68298 271.06696 142.06598 283.39294C 157.90797 318.17593 161.09698 356.64496 164.43198 394.21594C 178.34598 402.98895 193.70297 408.78494 209.51398 413.03195zM288.10498 288.042L292.482 290.836C 296.935 287.87 294.734 289.38998 299.08398 286.276L299.08398 286.276L293.38498 282.892L286.76398 287.129zM264.852 286.43698L269.936 290.36798L270.41602 290.16397L276.81903 286.88498L271.59003 282.94098L268.85703 284.68997C 268.579 284.84796 268.72104 284.774 268.433 284.91296zM311.76898 288.20297L315.33698 290.08997C 317.21198 288.47098 319.03796 286.79697 320.86996 285.12997C 318.54697 284.21896 316.47195 282.80496 314.36395 281.49197L314.36395 281.49197L308.23694 286.25098zM279.525 282.205L281.962 283.86298C 284.225 282.57397 286.342 281.04797 288.509 279.60696L288.509 279.60696L283.189 275.51797L276.367 279.88397zM256.099 279.59198L260.151 282.80197C 262.526 281.89096 264.74 280.66797 266.965 279.45197C 265.33398 278.24496 263.75598 276.97195 262.16998 275.70697zM250.659 275.16397L251.607 275.93698C 253.689 274.60797 255.79399 273.31497 257.896 272.01797C 254.532 268.347 249.04399 268.18497 244.429 267.52496L244.429 267.52496L244.088 267.45996C 246.13899 270.81296 244.987 268.93796 247.552 273.08197L247.552 273.08197L248.215 273.39798zM270.484 275.55997L271.771 276.50497C 276.343 273.51898 274.063 275.02097 278.613 271.99997L278.613 271.99997L277 270.761C 274.483 270.66098 271.965 270.603 269.447 270.539C 268.651 271.434 267.684 272.094 266.70798 272.77L266.70798 272.77L268.59497 274.17398zM302.31302 282.72296L303.113 283.27097C 305.247 281.71796 307.332 280.09998 309.424 278.49097L309.424 278.49097L304.198 275.31696L298.053 279.73795L300.936 281.78195zM321.68802 279.86896L324.87903 281.32095L325.62604 280.63394C 325.94403 276.25394 325.89905 278.44693 325.76004 274.05493L325.76004 274.05493L324.67804 273.48193L318.60703 278.19693zM287.96503 272.32596L293.32904 276.34595L299.07004 272.20193L296.70905 270.76694L289.32306 271.03793L288.71207 271.74893zM310.05902 272.73697L313.63803 275.10797C 317.36102 272.11597 315.51404 273.62997 319.17902 270.56598L319.17902 270.56598L318.393 270.662C 316.638 270.499 315.315 269.28598 314.072 268.154L314.072 268.154L313.905 268.33298L308.868 271.95697zM322.03802 266.12698L323.48203 267.03598L325.14102 265.79697C 325.066 264.69797 324.93002 263.60596 324.807 262.51196C 323.84 263.10495 322.903 263.74396 321.958 264.36996L321.958 264.36996L321.982 264.38397C 321.419 264.74097 321.873 264.45596 320.60098 265.20596zM298.88803 347.29398L313.98404 347.067C 321.34402 342.25598 330.49603 347.013 338.25705 343.387C 344.64706 340.401 345.06506 331.658 346.99905 325.90198C 350.00204 316.96597 353.22107 307.78098 356.42206 298.91397C 359.70605 289.81696 366.65506 278.54697 362.02307 268.63098C 359.8571 263.994 355.07507 261.84 351.47308 258.554C 342.7121 250.56299 342.8531 250.57799 334.3311 242.33499C 331.2721 245.46999 332.71808 244.086 330.0381 246.534L330.0381 246.534L330.14508 246.483C 331.55008 254.811 333.01807 264.527 333.2721 271.616C 333.5261 278.704 332.0511 290.691 329.9261 295.84C 328.90707 299.755 318.18008 322.699 314.1301 328.014C 306.0191 337.19202 300.6491 342.28702 294.94308 346.966L294.94308 346.966L295.24908 347.005z" stroke="#FFFFFF" stroke-width="1" fill="#231F20" fill-rule="nonzero" stroke-opacity="0" />
        <path d="M351.725 101.45L351.728 101.480995L330.475 64.7L292.225 49.699997L253.725 48.199997L206.975 58.199997L156.475 80.95L139.725 96.7L138.475 101.7L159.725 118.2L166.475 154.95L177.475 194.45L190.475 228.95L200.475 246.2L209.475 252.2L234.802 261.208L235.975 249.20001L217.725 226.20001L204.475 207.70001L200.725 173.45001L201.225 121.20001L256.225 105.20001L313.475 97.70001L351.725 101.45001L351.725 101.45z" stroke="#990000" stroke-width="1" fill="#27406B" fill-rule="nonzero" />
        <path d="M355.285 135.527L304.309 145.331L262.17798 149.803L226.47498 151.01099L200.97498 151.87599L200.96397 118.953995C 200.96397 118.953995 227.84097 108.15299 238.87598 105.31899C 249.91197 101.453995 275.47498 97.371994 275.47498 97.371994C 275.47498 97.371994 292.68597 94.16999 302.22498 93.04599C 311.76398 91.92299 328.22498 92.46999 328.22498 92.46999L328.22498 92.46999L347.97498 93.910995L354.44098 107.784L356.03497 130.621L355.28497 135.52701L355.285 135.527z" stroke="#FFFFFF" stroke-width="1" fill="#231F20" fill-rule="nonzero" stroke-opacity="0" />
        <path d="M272.975 108.2C 271.805 114.544 274.585 129.022 277.057 137.618C 281.999 142.841 300.512 139.789 300.512 139.789C 300.512 139.789 324.934 138.977 329.919 131.44301C 332.403 127.68901 331.165 124.50701 330.725 119.70001C 330.255 114.56801 328.225 108.20001 328.225 108.20001C 328.225 108.20001 328.209 105.752014 324.877 100.56601C 316.326 98.134 302.475 99.7 302.475 99.7L302.475 99.7L281.975 103.2C 281.975 103.2 277.538 103.613 272.975 108.2z" stroke="#FFFFFF" stroke-width="1" fill="#959595" fill-rule="nonzero" stroke-opacity="0" />
        <path d="M224.826 127.257C 226.938 129.019 228.041 132.841 225.93001 134.604C 223.81801 136.366 218.785 137.897 216.673 136.13501C 214.561 134.37201 213.416 130.964 215.52701 129.201C 217.639 127.439 222.47101 125.323006 224.58301 127.086006" stroke="#FFFFFF" stroke-width="1" fill="#959595" fill-rule="nonzero" stroke-opacity="0" />
        <path d="M251.688 123.298C 253.798 125.284996 254.294 130.95999 252.184 132.94699C 250.073 134.935 245.10701 136.06 242.996 134.07199C 240.886 132.08499 241.254 126.77199 243.364 124.78399C 245.475 122.79699 249.327 121.136986 251.438 123.123985" stroke="#FFFFFF" stroke-width="1" fill="#959595" fill-rule="nonzero" stroke-opacity="0" />
        <path d="M352.605 112.662C 354.212 114.513 352.25702 117.384 350.65002 119.235C 349.04303 121.087 343.04102 121.85 341.43503 119.999C 339.82803 118.148 340.15402 111.864 341.76102 110.013C 343.368 108.162 349.588 107.512 351.195 109.363" stroke="#FFFFFF" stroke-width="1" fill="#959595" fill-rule="nonzero" stroke-opacity="0" />
        <path d="M237.229 49.55L188.729 65.05L156.729 80.55L140.229 97.05L149.729 108.55L160.229 115.55L170.229 177.05L192.229 235.05L202.229 250.05L200.229 234.05L188.565 204.839L176.37201 161.63L172.44 128.011L180.899 104.269L170.483 109.304L155.337 95.212L171.61401 82.866L227.17601 61.705997L274.229 49.549995" stroke="#FFFFFF" stroke-width="1" fill="#4B69A8" fill-rule="nonzero" stroke-opacity="0" />
        <path d="M254.317 266.593C 244.182 264.728 220.078 260.74197 207.71701 257.482C 204.798 256.712 201.64201 252.36699 198.975 250.95C 180.733 220.65799 167.37701 185.539 160.225 152.2C 157.35901 136.25 158.492 129.493 154.475 119.2C 138.017 111.893 137.787 108.17 131.975 100.7C 135.225 96.117 139.908 89.574 147.00601 82.326996C 164.947 68.702995 173.62701 64.864 192.68901 57.481995C 203.25601 53.390995 215.31302 49.652996 226.475 47.699997C 266.24402 40.739998 287.79102 37.288998 322.725 55.199997C 330.768 59.323997 337.78702 65.729996 343.225 72.95C 359.76102 94.904 356.986 105.668 359.475 131.95L359.475 131.95L354.012 132.467C 354.012 132.467 348.146 97.756996 348.146 97.756996C 348.146 97.756996 340.898 80.697 335.975 75.2C 323.085 60.805996 299.11102 53.336998 283.475 49.949997C 272.59 49.222996 247.78201 48.393997 203.225 63.199997C 170.58101 74.048 145.32101 94.063995 143.05101 99.076C 150.09502 104.48399 148.64001 105.619995 162.475 115.45C 166.21901 127.062 166.123 139.386 168.725 151.2C 174.877 179.129 184.29701 216.69699 199.725 241.2C 201.80101 244.497 202.656 245.993 207.475 249.95C 213.065 252.87599 227.487 257.292 231.621 258.232C 235.755 259.172 231.186 250.491 231.186 250.491C 224.06801 241.636 207.363 224.931 198.725 201.7C 194.43901 182.618 196.69301 133.226 196.69301 122.069L196.69301 122.069L201.968 118.617C 201.09601 150.065 203.166 192.337 207.475 206.2C 210.968 215.431 232.625 241.22 233.725 242.7L233.725 242.7L254.317 266.593z" stroke="#231F20" stroke-width="1" fill="#231F20" fill-rule="nonzero" />
        <path d="M356.697 414.85L373.429 394.80402L392.05 418.94202L377.18298 477.01703L371.791 483.61804L356.697 414.85z" stroke="none" fill="#404040" fill-rule="nonzero" />
        <path d="M371.068 489.718L351.429 415.705L367.749 391.27698L379.817 391.68298L395.499 415.576L393.645 430.63498L375.856 491.12097L371.068 489.71796L371.068 489.718zM360 413.825L365.617 449.42L374.311 477.77103L388.277 419.26602L379.52002 403.16302L372.26303 399.40002z" stroke="none" fill="#231F20" fill-rule="nonzero" />
        <path d="M363.104 414.9L371.624 414.71698L378.22 415.214L384.128 418.405L378.124 420.545L374.104 463.40002L370.104 419.65002L363.104 414.90002L363.104 414.9z" stroke="#FFFFFF" stroke-width="1" fill="#959595" fill-rule="nonzero" stroke-opacity="0" />
        <path d="M331.33 291.093C 322.478 291.121 313.78098 289.405 305.18198 287.49C 305.36096 284.654 305.28198 281.822 305.511 278.98798C 308.22498 277.416 311.42398 277.33398 314.47098 277.11C 312.585 276.111 310.43097 275.89297 308.348 275.62997C 305.781 275.73196 307.05798 275.61298 304.518 275.98596C 304.419 274.12598 303.594 272.42197 302.86902 270.73895C 309.08102 268.05594 319.36902 257.51294 326.88202 259.61194C 330.18503 260.53494 331.24503 264.03394 331.90802 267.04495C 333.62802 274.86496 334.02902 282.27994 331.98 290.07294L331.98 290.07294L331.33 291.093z" stroke="#FFFFFF" stroke-width="1" fill="#D33833" fill-rule="nonzero" stroke-opacity="0" />
        <path d="M331.33 291.093C 322.478 291.121 313.78098 289.405 305.18198 287.49C 305.36096 284.654 305.28198 281.822 305.511 278.98798C 308.22498 277.416 311.42398 277.33398 314.47098 277.11C 312.585 276.111 310.43097 275.89297 308.348 275.62997C 305.781 275.73196 307.05798 275.61298 304.518 275.98596C 304.419 274.12598 303.594 272.42197 302.86902 270.73895C 309.08102 268.05594 319.36902 257.51294 326.88202 259.61194C 330.18503 260.53494 331.24503 264.03394 331.90802 267.04495C 333.62802 274.86496 334.02902 282.27994 331.98 290.07294L331.98 290.07294L331.33 291.093z" stroke="#D33833" stroke-width="2" fill="none" />
        <path d="M251.778 308.063C 248.107 306.585 246.915 299.705 245.846 296.02798C 243.66399 288.52698 242.21599 281.09097 242.527 273.24298C 242.694 269.02997 244.055 262.60498 249.16899 261.89197C 252.562 261.41898 255.913 262.82095 259.03598 263.95096C 263.16898 265.44696 267.22998 267.11694 271.166 269.07996C 275.693 271.33795 280.06 273.76196 284.92398 275.22894C 284.85397 277.06793 284.883 276.32895 284.83798 277.44394C 281.248 279.09793 277.38898 280.03693 273.59198 281.08295C 277.82397 281.07196 281.79697 282.66895 285.69098 284.14294C 285.529 288.27994 285.60098 286.43094 285.47498 289.68994C 276.60098 298.54794 265.38098 304.01895 253.62398 307.92093L253.62398 307.92093L251.778 308.063z" stroke="#FFFFFF" stroke-width="1" fill="#D33833" fill-rule="nonzero" stroke-opacity="0" />
        <path d="M251.778 308.063C 248.107 306.585 246.915 299.705 245.846 296.02798C 243.66399 288.52698 242.21599 281.09097 242.527 273.24298C 242.694 269.02997 244.055 262.60498 249.16899 261.89197C 252.562 261.41898 255.913 262.82095 259.03598 263.95096C 263.16898 265.44696 267.22998 267.11694 271.166 269.07996C 275.693 271.33795 280.06 273.76196 284.92398 275.22894C 284.85397 277.06793 284.883 276.32895 284.83798 277.44394C 281.248 279.09793 277.38898 280.03693 273.59198 281.08295C 277.82397 281.07196 281.79697 282.66895 285.69098 284.14294C 285.529 288.27994 285.60098 286.43094 285.47498 289.68994C 276.60098 298.54794 265.38098 304.01895 253.62398 307.92093L253.62398 307.92093L251.778 308.063z" stroke="#D33833" stroke-width="2" fill="none" />
        <path d="M293.91 286.342C 292.717 286.32602 289.935 286.483 288.79 286.18002C 287.87402 282.76303 287.82602 276.122 287.78302 272.59302C 289.02203 271.85 293.38702 271.351 294.98703 270.96402C 302.01102 269.265 301.87402 280.73502 297.81003 284.859C 297.252 285.42502 296.46902 285.717 295.76202 286.036L295.76202 286.036L293.91 286.342z" stroke="#FFFFFF" stroke-width="1" fill="#D33833" fill-rule="nonzero" stroke-opacity="0" />
        <path d="M293.91 286.342C 292.717 286.32602 291.586 286.108 290.44 285.80502C 289.52402 282.38803 289.035 278.91702 288.992 275.38702C 290.23102 274.644 290.914 274.157 292.515 273.769C 299.53802 272.07 301.87402 280.73502 297.81003 284.859C 297.252 285.42502 296.46902 285.717 295.76202 286.036L295.76202 286.036L293.91 286.342z" stroke="#D33833" stroke-width="2" fill="none" />
        <path d="M309.085 289.719L301.078 286.859L301.078 274.277L302.22202 267.98502L323.95602 255.40402L330.81903 257.691L334.25003 267.98502C 333.27304 266.492 331.50403 266.34302 329.88303 266.148C 325.60403 266.423 317.05902 265.484 315.94803 271.41702C 315.47302 273.95203 317.19904 277.78702 315.05304 279.86902C 312.93903 281.919 309.52905 281.321 307.17004 283.10303C 306.54404 285.515 307.84406 287.66104 309.04105 289.65402L309.04105 289.65402L309.085 289.719z" stroke="#FFFFFF" stroke-width="1" fill="#EF3D3A" fill-rule="nonzero" stroke-opacity="0" />
        <path d="M249.035 308.592C 249.026 305.98602 249.16301 305.687 248.20801 302.621C 247.197 299.379 245.315 296.519 243.779 293.525C 241.81201 289.692 240.181 285.714 239.02301 281.561C 235.60101 269.293 241.64902 256.984 255.48701 258.951C 261.33502 259.783 266.653 262.216 271.842 264.956C 274.739 266.485 277.82 268.60498 280.96402 269.748C 285.25702 271.309 289.71902 271.905 294.21503 272.56097C 294.67804 280.19797 287.394 283.12897 281.28702 285.25497C 277.91803 284.94098 275.19 282.83997 272.53903 280.92697C 275.85602 270.65396 264.13904 270.72397 257.18704 270.69797C 255.06505 270.70297 256.25903 270.69797 253.60805 270.71698L253.60805 270.71698L252.77405 270.71298C 245.26305 273.602 246.75905 282.14697 247.61604 288.58798C 248.48404 295.11298 249.57404 301.567 251.07704 307.977L251.07704 307.977L249.035 308.592z" stroke="#FFFFFF" stroke-width="1" fill="#EF3D3A" fill-rule="nonzero" stroke-opacity="0" />
        <path d="M251.948 314.122C 247.104 310.958 243.257 305.556 241.064 299.346C 239.023 293.568 238.59999 285.376 237.33499 279.41602C 236.833 273.851 237.377 268.48502 237.93999 263.139L237.93999 263.139L238.00798 263.03702C 239.66298 259.532 238.81898 261.277 240.54099 257.80402L240.54099 257.80402L240.56798 257.74503C 241.93597 256.21402 243.41498 254.75502 245.15797 254.42102C 256.48596 252.24503 263.64697 254.91202 277.34396 262.527C 283.23798 266.37302 289.80197 268.538 296.65497 267.648C 301.64597 266.47202 298.22998 266.789 298.91498 266.256C 302.38898 263.556 305.30997 260.168 309.21698 258.04602C 314.525 255.16302 318.887 253.03802 324.585 251.10402C 328.818 250.52402 329.469 251.34302 331.77 252.60202C 334.422 254.84402 338.214 255.83801 339.292 269.55502C 340.309 274.54303 339.563 282.46802 336.202 291.22702C 334.49 294.64 332.49298 294.70602 328.262 294.49402C 324.031 294.282 315.918 293.50803 312.972 292.433C 310.02597 291.359 304.33 289.966 300.263 289.263C 297.258 289.811 294.385 290.882 291.517 291.902C 290.693 291.781 289.885 291.595 289.073 291.41602C 287.815 292.881 288.533 292.048 286.917 293.91302C 283.563 295.39 282.413 297.42203 280.766 298.53403C 277.63 300.65002 275.531 301.97504 272.22598 304.562C 268.91998 307.148 262.43997 310.302 256.67697 313.204L256.67697 313.204L251.948 314.122zM327.735 289.945C 327.735 289.945 328.98798 290.422 331.33 290.09302C 334.787 281.52103 333.46 276.196 332.88898 267.532C 332.54797 265.60303 331.22098 261.946 329.32898 260.60703C 327.49 259.30603 326.01297 259.05902 323.86697 258.48303C 316.274 261.00403 309.56796 265.47803 302.869 269.73904C 303.676 271.39606 304.082 273.20605 304.51797 274.98605C 307.87897 274.54407 311.21198 275.38306 314.47098 276.11005C 311.39398 276.17703 308.43698 277.12405 305.511 277.98804C 305.11 283.64905 305.22 280.81503 305.18198 286.49005C 310.27997 287.98904 315.56796 288.65906 320.81598 289.39905zM290.44 284.805C 291.783 285.261 293.27402 285.02 294.618 284.68698C 296.13 284.31198 297.532 283.55 298.544 282.356C 299.467 281.266 299.39902 279.11398 299.277 277.948C 299.177 276.98898 298.94202 276.041 298.63202 275.128C 297.915 273.017 296.93002 272.624 294.98102 272.464C 292.82602 272.442 290.88202 273.47498 288.992 274.387C 289.141 278.776 288.946 276.15298 289.897 282.227zM250.271 306.772C 253.00099 307.897 257.889 305.548 257.889 305.548C 271.265 303.531 274.87 296.521 285.475 288.689C 285.63602 284.529 285.564 286.378 285.691 283.142C 281.90002 281.333 277.696 280.75198 273.592 280.083C 277.349 278.897 281.09302 277.668 284.838 276.444C 284.911 274.598 284.88303 275.337 284.924 274.229C 283.38702 274.06 281.794 273.91202 280.393 273.204C 277.281 271.63 274.491 269.476 271.269 268.11502C 264.40802 265.217 257.251 263.114 250.13802 260.94302C 240.12502 265.37802 240.72002 277.51703 243.54602 288.98602C 245.04002 292.85202 248.03603 303.213 250.27103 306.77203z" stroke="#FFFFFF" stroke-width="1" fill="#231F20" fill-rule="nonzero" stroke-opacity="0" />
		<g>
            <path d="M297.493 127.472C 298.247 118.427 303.752 120.096 305.918 119.572C 310.907 118.364 313.342 116.463 313.921 111.651C 314.466 107.129 311.689 109.889 311.615 105.554C 318.26898 108.773 319.45398 110.216 320.98798 117.968C 321.08298 118.962006 320.98798 119.964005 320.98798 120.962006C 320.06796 127.282005 316.15198 132.57701 309.88696 134.44101C 308.92697 134.727 307.98596 135.53801 304.01895 134.73201C 299.72894 131.96802 298.98795 131.395 297.49295 127.47201L297.49295 127.47201L297.493 127.472z" stroke="#FFFFFF" stroke-width="1" fill="#31538D" fill-rule="nonzero" stroke-opacity="0" />
            <path d="M304.129 134.676C 296.775 133.58499 290.853 128.28 290.117 120.632996C 290.021 119.63899 290.117 118.635994 290.117 117.63799C 293.54 105.36699 298.443 105.44599 305.004 104.10099C 308.711 104.18899 310.985 105.50799 312.078 106.90099C 313.171 108.29499 314.771 111.45799 313.14902 114.452995C 311.527 117.449 307.61603 117.604 305.104 119.324C 300.964 120.756996 297.52402 121.474 297.366 126.562996C 297.329 129.067 300.466 133.172 304.251 133.409L304.251 133.409L304.129 134.676z" stroke="#FFFFFF" stroke-width="1" fill="#D03133" fill-rule="nonzero" stroke-opacity="0" />
            <path d="M308.341 111.357C 308.482 112.635 307.712 112.566 307.712 112.566C 307.712 112.566 305.635 113.327 304.914 112.68C 304.193 112.032 304.38 110.869 305.101 110.221C 305.82202 109.574 307.557 110.399 307.557 110.399" stroke="#FFFFFF" stroke-width="1" fill="#FFFFFF" fill-rule="nonzero" stroke-opacity="0" />
            <path d="M308.41 126.563C 309.131 127.211006 309.445 128.308 308.724 128.955C 308.003 129.603 306.521 129.556 305.8 128.908C 305.07898 128.261 304.817 127.06901 305.538 126.422005C 306.259 125.774 307.689 125.91601 308.41 126.563" stroke="#FFFFFF" stroke-width="1" fill="#FFFFFF" fill-rule="nonzero" stroke-opacity="0" />
            <path d="M300.694 136.289C 295.768 135.485 291.287 133.132 289.133 128.436C 287.689 125.29001 287.423 121.812004 287.246 118.412C 286.38 101.721 305.999 97.541 317.305 106.151C 322.48898 110.1 323.625 116.622 322.449 122.672C 321.896 125.521996 321.385 128.64299 319.566 131.03299C 317.612 133.60098 314.614 134.70999 311.651 135.648L311.651 135.648L300.694 136.289zM303.254 132.367L308.142 132.367C 314.522 130.353 318.391 126.131004 318.391 119.37401C 318.391 116.47301 317.629 113.770004 316.061 111.26501C 315.50702 110.378006 314.686 109.68901 313.999 108.90101L313.999 108.90101L313.94598 108.87101C 315.33298 112.90201 313.159 117.83901 308.97098 119.20601C 306.30798 120.07601 302.45697 120.45901 300.10797 122.14801C 297.45096 124.058014 296.89996 129.199 300.18497 131.382zM296.365 128.797L297.31598 129.44699C 297.037 128.43298 296.65598 125.98899 296.62897 124.93799C 296.42197 116.956985 305.38397 119.23199 309.95596 116.28699C 312.08597 114.91399 313.78397 111.972984 312.62497 109.64499C 312.24298 108.87799 312.05597 108.178986 311.53598 107.49699C 310.93 106.70199 309.72998 106.637985 308.801 106.26999C 304.11 106.67599 297.387 106.55999 294.22 111.11999C 292.058 114.23299 292.423 117.33899 292.846 120.81599C 293.004 122.11799 292.98502 123.719986 293.522 124.958984C 293.855 125.72798 294.312 126.43698 294.707 127.17699z" stroke="none" fill="#231F20" fill-rule="nonzero" />
		</g>
        <path d="M341.741 108.71C 341.741 108.71 340.721 133.12799 336.362 141.42C 329.118 144.374 319.644 145.155 319.644 145.155C 319.644 145.155 331.26 146.991 335.738 151.877C 341.457 158.603 340.082 173.996 340.082 173.996C 340.082 173.996 339.689 158.089 344.877 152.603C 350.574 146.579 359.627 145.349 359.627 145.349C 359.627 145.349 352.22302 145.269 346.026 140.78C 342.594 132.686 341.741 108.71 341.741 108.71z" stroke="none" fill="#FFE755" fill-rule="nonzero" />
        <path d="M340.032 157.963C 340.15802 159.124 339.74103 171.877 339.74103 171.877C 340.765 167.093 341.18002 160.548 343.85602 148.137C 348.71802 147.644 351.117 145.467 358.99503 145.60599C 356.16602 145.14198 347.114 144.32599 344.78802 142.64099C 342.77902 137.67299 341.99902 123.46499 341.381 118.18199C 340.53 123.48499 338.703 137.262 337.01602 142.849C 333.863 144.901 329.23502 144.583 325.75504 145.203C 335.37402 147.81801 338.50204 150.84 338.50204 150.84C 338.50204 150.84 339.90604 156.803 340.03204 157.963L340.03204 157.963L340.032 157.963zM339.92902 177.784C 337.34402 171.15799 339.334 157.92 334.63303 152.89C 330.98 148.983 324.70303 146.935 319.08502 144.901C 326.471 141.762 330.86203 142.745 335.26404 140.229L335.26404 140.229L341.88104 107.05C 342.94904 117.573006 343.46005 130.587 347.23105 140.667L347.23105 140.667L364.37704 145.526C 358.19806 146.507 350.21704 148.384 345.91205 153.434C 344.47406 155.121 343.62204 160.63101 343.16003 162.731z" stroke="none" fill="#6F5F00" fill-rule="nonzero" />
        <path d="M264.568 113.248C 264.568 113.248 264.438 142.146 254.62999 151.09799C 244.74998 158.096 232.45499 155.94699 232.45499 155.94699C 232.45499 155.94699 250.02998 160.10999 255.62 163.402C 259.832 175.482 261.572 208.29199 261.572 208.29199C 261.572 208.29199 261.518 165.37299 269.15698 161.31999C 276.79498 157.267 289.232 156.034 289.232 156.034C 289.232 156.034 273.81198 156.762 267.72598 149.205C 262.72498 137.463 264.568 113.248 264.568 113.248z" stroke="none" fill="#FFE755" fill-rule="nonzero" />
        <path d="M260.158 183.253L260.939 194.201C 261.986 187.356 262.964 168.27701 266.475 160.61C 268.672 158.592 278.043 156.769 281.03 156.013C 268.194 153.026 269.26 153.715 264.756 149.659L264.756 149.659L264.30502 126.103C 264.30502 126.103 262.24103 136.205 260.484 143.82599C 258.728 151.44699 261.631 148.42099 255.641 152.206C 246.839 153.92 245.889 155.683 240.87701 156.32599C 245.31001 157.91798 252.90501 159.40799 256.828 162.01999C 259.814 164.939 258.26 171.16399 259.433 174.956L259.433 174.956L260.158 183.253zM256.58698 175.975C 255.88797 173.125 256.44797 167.207 254.06198 165.02701C 250.02098 161.33601 235.52098 157.983 230.00899 156.42601C 236.63098 154.369 245.801 152.34601 254.81699 148.727C 257.978 140.496 260.908 133.84601 262.78998 119.464005L262.78998 119.464005L262.80197 119.275L264.96396 111.727005C 267.03595 120.37701 265.08496 140.509 268.53696 149.628L268.53696 149.628L290.08197 156.673C 285.78198 157.25801 272.02997 160.125 269.39496 162.976C 265.97397 166.679 265.51996 173.54599 264.87994 178.241C 263.52396 188.181 263.45694 192.50299 261.27594 208.84999" stroke="none" fill="#6F5F00" fill-rule="nonzero" />
	</g>
</g>
</svg>